<?xml version="1.0" encoding="UTF-8"?><svg id="Layer_1" xmlns="http://www.w3.org/2000/svg" viewBox="0 0 512 512"><defs><style>.cls-1{fill:#d8dee9;}.cls-2{fill:#beedf0;}.cls-3{fill:#447795;}.cls-4{fill:#88c0d0;}.cls-5{fill:#2e3440;}</style></defs><path class="cls-1" d="M452,512H60c-33.14,0-60-26.86-60-60V60C0,26.86,26.86,0,60,0H452c33.14,0,60,26.86,60,60V452c0,33.14-26.86,60-60,60Z"/><g><g><path class="cls-4" d="M413.73,327.87l-71.87-71.87V104.06c0-7.31-8.83-10.97-14-5.8l-71.87,71.87H104.06c-7.31,0-10.97,8.83-5.8,14l71.87,71.87v151.94c0,7.31,8.83,10.97,14,5.8l71.87-71.87h151.94c7.31,0,10.97-8.83,5.8-14h0Z"/><path class="cls-3" d="M413.73,327.87l-71.87-71.87V104.06c0-7.31-8.83-10.97-14-5.8l-28.18,28.18V256l71.87,71.87c5.17,5.17,1.51,14-5.8,14h42.18c7.31,0,10.97-8.83,5.8-14h0Z"/><g><path class="cls-2" d="M184.13,413.73l71.87-71.87v-85.87h-85.87v151.94c0,7.31,8.83,10.97,14,5.8h0Z"/><path class="cls-2" d="M327.87,98.27l-71.87,71.87v85.87h85.87V104.06c0-7.31-8.83-10.97-14-5.8Z"/><path class="cls-2" d="M341.87,104.06c0-7.31-8.83-10.97-14-5.8l-28.18,28.18V256h42.18V104.06Z"/></g><path class="cls-3" d="M170.13,385.55v22.38c0,7.31,8.83,10.97,14,5.8l71.87-71.87h-25.03c-10.98,0-21.51,4.36-29.28,12.13l-31.56,31.56Z"/></g><path class="cls-5" d="M417.15,324.45l-70.45-70.45v-58.9c0-2.67-2.16-4.83-4.83-4.83s-4.83,2.16-4.83,4.83v56.07h-76.2v-79.03l70.45-70.45c2.12-2.12,5.75-.64,5.75,2.38v68.15c0,2.67,2.16,4.83,4.83,4.83s4.83-2.16,4.83-4.83V104.06c0-11.61-14.03-17.44-22.25-9.22l-70.45,70.45H104.06c-11.61,0-17.44,14.03-9.22,22.25l70.45,70.45v58.15c0,2.67,2.16,4.83,4.83,4.83s4.83-2.16,4.83-4.83v-55.32h76.2v79.03l-70.45,70.45c-2.12,2.12-5.75,.64-5.75-2.38v-69.02c0-2.67-2.16-4.83-4.83-4.83s-4.83,2.16-4.83,4.83v69.02c0,11.61,14.03,17.44,22.25,9.22l70.45-70.45h149.93c11.61,0,17.44-14.03,9.22-22.25h0Zm-165.99-73.28h-79.03l-70.45-70.45c-2.12-2.12-.64-5.75,2.38-5.75H251.17v76.2Zm156.77,85.87h-147.1v-76.2h79.03l70.45,70.45c2.12,2.12,.64,5.75-2.38,5.75Z"/></g></svg>